<svg width="88" height="88" viewBox="0 0 88 88" fill="none" xmlns="http://www.w3.org/2000/svg">
<g filter="url(#filter0_bd_3117_426)">
<path d="M29 64C26.2386 64 24 61.7614 24 59L24 29C24 26.2386 26.2386 24 29 24L49.2184 24C50.3299 24 51.4097 24.3704 52.2873 25.0526L62.0689 32.6574C63.2873 33.6047 64 35.0615 64 36.6048L64 59C64 61.7614 61.7614 64 59 64L29 64Z" fill="#22F5C3"/>
</g>
<path d="M50.215 37.4386L45.8175 35.4837C44.3675 34.8388 42.635 34.8388 41.185 35.4837L36.785 37.4386C35.0675 38.201 34 39.7484 34 41.4733V47.5229C34 49.2478 35.0675 50.7952 36.785 51.5577L41.185 53.5125C41.905 53.8325 42.6925 53.9925 43.48 53.995C43.4875 53.995 43.4925 54 43.5 54C43.5075 54 43.5125 53.9975 43.52 53.995C44.31 53.9925 45.0975 53.8325 45.815 53.5125L50.215 51.5577C51.9325 50.7952 53 49.2478 53 47.5229V41.4733C53 39.7484 51.9325 38.201 50.215 37.4386ZM41.59 36.3987C42.1875 36.1337 42.845 35.9987 43.5 35.9987C44.155 35.9987 44.8125 36.1312 45.41 36.3987L49.8075 38.351C50.255 38.551 50.64 38.8185 50.965 39.131L47.9975 40.4484L40.2325 37.0011L41.59 36.3987ZM37.1925 38.351L39 37.5486L46.7675 40.9984L44.805 41.8708C44.02 42.2208 42.9825 42.2208 42.1975 41.8708L36.035 39.1335C36.3575 38.821 36.7425 38.551 37.1925 38.3535V38.351ZM37.1925 50.6427C35.84 50.0428 35 48.8453 35 47.5229V41.4733C35 40.9309 35.1475 40.4134 35.405 39.9484L41.79 42.7857C42.1625 42.9507 42.5775 43.0382 43 43.0882V52.9451C42.515 52.8951 42.035 52.7951 41.59 52.5976L37.19 50.6427H37.1925ZM52 47.5229C52 48.8478 51.16 50.0428 49.8075 50.6427L45.4075 52.5976C44.9625 52.7951 44.4825 52.8951 43.9975 52.9451V43.0882C44.42 43.0407 44.835 42.9507 45.2075 42.7857L51.5925 39.9484C51.85 40.4159 51.9975 40.9334 51.9975 41.4733V47.5229H52Z" fill="black"/>
<defs>
<filter id="filter0_bd_3117_426" x="0" y="0" width="88" height="88" filterUnits="userSpaceOnUse" color-interpolation-filters="sRGB">
<feFlood flood-opacity="0" result="BackgroundImageFix"/>
<feGaussianBlur in="BackgroundImageFix" stdDeviation="2"/>
<feComposite in2="SourceAlpha" operator="in" result="effect1_backgroundBlur_3117_426"/>
<feColorMatrix in="SourceAlpha" type="matrix" values="0 0 0 0 0 0 0 0 0 0 0 0 0 0 0 0 0 0 127 0" result="hardAlpha"/>
<feOffset/>
<feGaussianBlur stdDeviation="12"/>
<feComposite in2="hardAlpha" operator="out"/>
<feColorMatrix type="matrix" values="0 0 0 0 0.133333 0 0 0 0 0.960784 0 0 0 0 0.764706 0 0 0 0.35 0"/>
<feBlend mode="normal" in2="effect1_backgroundBlur_3117_426" result="effect2_dropShadow_3117_426"/>
<feBlend mode="normal" in="SourceGraphic" in2="effect2_dropShadow_3117_426" result="shape"/>
</filter>
</defs>
</svg>
